<svg width="337" height="51" viewBox="0 0 337 51" fill="none" xmlns="http://www.w3.org/2000/svg">
<path fill-rule="evenodd" clip-rule="evenodd" d="M66.2 33.03V18.69C66.2 18.52 66.34 18.38 66.51 18.38H70.98C71.12 18.38 71.24 18.26 71.24 18.12V13.43C71.24 13.29 71.12 13.17 70.98 13.17H66.5C66.33 13.17 66.19 13.03 66.19 12.86V6.26C66.19 6.12 66.07 6 65.93 6H61.26C61.12 6 61 6.12 61 6.26V34.45C61 36.7 62.84 38.53 65.08 38.53H70.97C71.11 38.53 71.23 38.41 71.23 38.27V33.6C71.23 33.46 71.11 33.34 70.97 33.34H66.5C66.33 33.34 66.2 33.2 66.2 33.03Z" fill="#333333"/>
<path fill-rule="evenodd" clip-rule="evenodd" d="M192.43 26.4C192.36 25.97 192.32 25.53 192.32 25.1C192.32 24.66 192.36 24.23 192.43 23.8C193.06 19.99 196.37 17.2 200.22 17.2C202.32 17.2 204.32 18.03 205.81 19.51L206.41 20.11C206.51 20.21 206.68 20.21 206.78 20.11L210.08 16.81C210.18 16.71 210.18 16.54 210.08 16.44L209.48 15.84C207.02 13.38 203.7 12 200.22 12C193.62 12 188.03 16.92 187.22 23.47C187.15 24.01 187.12 24.55 187.12 25.09C187.12 25.63 187.15 26.17 187.22 26.71C188.03 33.26 193.62 38.18 200.22 38.18C203.7 38.18 207.02 36.81 209.48 34.34L210.08 33.74C210.18 33.64 210.18 33.47 210.08 33.37L206.78 30.07C206.68 29.97 206.51 29.97 206.41 30.07L205.81 30.67C204.32 32.16 202.33 32.98 200.22 32.98C196.36 33 193.06 30.21 192.43 26.4Z" fill="#333333"/>
<path fill-rule="evenodd" clip-rule="evenodd" d="M296.924 18.34C299.504 18.92 301.364 21.24 301.364 23.88V38.11C301.364 38.25 301.484 38.37 301.624 38.37H306.294C306.434 38.37 306.554 38.25 306.554 38.11V23.88C306.554 18.53 302.614 13.94 297.334 13.13C296.784 13.05 296.234 13 295.674 13C295.124 13 294.564 13.04 294.014 13.13C288.734 13.95 284.794 18.54 284.794 23.88V38.11C284.794 38.25 284.914 38.37 285.054 38.37H289.724C289.864 38.37 289.984 38.25 289.984 38.11V23.88C289.984 21.23 291.844 18.92 294.424 18.34C294.834 18.25 295.244 18.2 295.664 18.2C296.084 18.2 296.524 18.24 296.924 18.34Z" fill="#333333"/>
<path fill-rule="evenodd" clip-rule="evenodd" d="M117.57 18.34C120.15 18.92 122.01 21.24 122.01 23.88V38.11C122.01 38.25 122.13 38.37 122.27 38.37H126.94C127.08 38.37 127.2 38.25 127.2 38.11V23.88C127.2 18.53 123.26 13.94 117.98 13.13C117.43 13.05 116.88 13 116.32 13C115.77 13 115.21 13.04 114.66 13.13C109.38 13.95 105.44 18.54 105.44 23.88V38.11C105.44 38.25 105.56 38.37 105.7 38.37H110.37C110.51 38.37 110.63 38.25 110.63 38.11V23.88C110.63 21.23 112.49 18.92 115.07 18.34C115.48 18.25 115.89 18.2 116.31 18.2C116.73 18.2 117.16 18.24 117.57 18.34Z" fill="#333333"/>
<path fill-rule="evenodd" clip-rule="evenodd" d="M173.49 18.34C176.07 18.92 177.93 21.24 177.93 23.88V38.11C177.93 38.25 178.05 38.37 178.19 38.37H182.86C183 38.37 183.12 38.25 183.12 38.11V23.88C183.12 18.53 179.18 13.94 173.9 13.13C173.35 13.05 172.8 13 172.24 13C171.69 13 171.13 13.04 170.58 13.13C165.3 13.95 161.36 18.54 161.36 23.88V38.11C161.36 38.25 161.48 38.37 161.62 38.37H166.29C166.43 38.37 166.55 38.25 166.55 38.11V23.88C166.55 21.23 168.41 18.92 170.99 18.34C171.4 18.25 171.81 18.2 172.23 18.2C172.65 18.2 173.08 18.24 173.49 18.34Z" fill="#333333"/>
<path fill-rule="evenodd" clip-rule="evenodd" d="M245.704 5C245.564 5 245.444 5.12 245.444 5.26V37.43C245.444 37.57 245.564 37.69 245.704 37.69H250.374C250.514 37.69 250.634 37.57 250.634 37.43V5.26C250.634 5.12 250.514 5 250.374 5H245.704Z" fill="#333333"/>
<path fill-rule="evenodd" clip-rule="evenodd" d="M322.024 12.1C315.474 12.91 310.554 18.5 310.554 25.1C310.554 31.7 315.474 37.29 322.024 38.1C322.564 38.17 323.104 38.2 323.644 38.2C324.184 38.2 324.724 38.17 325.264 38.1C331.814 37.29 336.734 31.7 336.734 25.1V5.26C336.734 5.12 336.614 5 336.474 5H331.804C331.664 5 331.544 5.12 331.544 5.26V25.09C331.544 28.94 328.754 32.25 324.944 32.88C324.514 32.95 324.074 32.99 323.644 32.99C323.204 32.99 322.774 32.95 322.344 32.88L322.234 32.86C318.484 32.19 315.744 28.9 315.744 25.09C315.744 21.24 318.534 17.93 322.344 17.3C322.774 17.23 323.214 17.19 323.644 17.19C324.084 17.19 324.514 17.23 324.944 17.3L325.044 17.32C326.264 17.54 327.424 18.05 328.414 18.8C328.494 18.86 328.594 18.87 328.694 18.83C328.784 18.78 328.844 18.7 328.844 18.59V13.24C328.844 13.13 328.784 13.04 328.684 13C327.594 12.55 326.444 12.24 325.274 12.1C324.734 12.03 324.194 12 323.654 12C323.114 12 322.554 12.03 322.024 12.1Z" fill="#333333"/>
<path fill-rule="evenodd" clip-rule="evenodd" d="M266.104 12.1C259.554 12.91 254.634 18.5 254.634 25.1C254.634 31.7 259.554 37.29 266.104 38.1C266.644 38.17 267.184 38.2 267.724 38.2C268.264 38.2 268.804 38.17 269.344 38.1C270.514 37.96 271.664 37.65 272.754 37.2C272.854 37.16 272.914 37.07 272.914 36.96V31.62C272.914 31.51 272.864 31.43 272.764 31.38C272.674 31.33 272.574 31.34 272.484 31.41C271.464 32.18 270.274 32.7 269.014 32.9C268.584 32.97 268.144 33.01 267.714 33.01C267.274 33.01 266.844 32.97 266.414 32.9L266.304 32.88C262.554 32.21 259.814 28.92 259.814 25.11C259.814 21.26 262.604 17.95 266.414 17.32C266.844 17.25 267.284 17.21 267.714 17.21C268.154 17.21 268.584 17.25 269.014 17.32L269.114 17.34C272.874 18.01 275.604 21.3 275.604 25.12V37.54C275.604 37.68 275.724 37.8 275.864 37.8H280.534C280.674 37.8 280.794 37.68 280.794 37.54V25.1C280.794 18.5 275.874 12.91 269.324 12.1C268.784 12.03 268.244 12 267.704 12C267.184 12 266.644 12.03 266.104 12.1Z" fill="#333333"/>
<path fill-rule="evenodd" clip-rule="evenodd" d="M142.67 12.1C136.12 12.91 131.2 18.5 131.2 25.1C131.2 31.7 136.12 37.29 142.67 38.1C143.21 38.17 143.75 38.2 144.29 38.2C144.83 38.2 145.37 38.17 145.91 38.1C147.08 37.96 148.23 37.65 149.32 37.2C149.42 37.16 149.48 37.07 149.48 36.96V31.62C149.48 31.51 149.43 31.43 149.33 31.38C149.24 31.33 149.14 31.34 149.05 31.41C148.03 32.18 146.84 32.7 145.58 32.9C145.15 32.97 144.71 33.01 144.28 33.01C143.84 33.01 143.41 32.97 142.98 32.9L142.87 32.88C139.12 32.21 136.38 28.92 136.38 25.11C136.38 21.26 139.17 17.95 142.98 17.32C143.41 17.25 143.85 17.21 144.28 17.21C144.72 17.21 145.15 17.25 145.58 17.32L145.68 17.34C149.44 18.01 152.17 21.3 152.17 25.12V37.54C152.17 37.68 152.29 37.8 152.43 37.8H157.1C157.24 37.8 157.36 37.68 157.36 37.54V25.1C157.36 18.5 152.44 12.91 145.89 12.1C145.35 12.03 144.81 12 144.27 12C143.75 12 143.21 12.03 142.67 12.1Z" fill="#333333"/>
<path fill-rule="evenodd" clip-rule="evenodd" d="M227.46 30.39L219.8 13.16C219.76 13.06 219.67 13 219.56 13H214.42C214.32 13 214.25 13.04 214.2 13.12C214.15 13.2 214.14 13.28 214.18 13.37L224.84 37.18C224.88 37.26 224.88 37.35 224.84 37.43L221.28 45.32C221.24 45.41 221.25 45.49 221.3 45.57C221.35 45.65 221.43 45.69 221.52 45.69H226.66C226.77 45.69 226.86 45.63 226.9 45.54L241.42 13.37C241.46 13.28 241.45 13.2 241.4 13.12C241.35 13.04 241.27 13 241.18 13H236.04C235.93 13 235.84 13.06 235.8 13.16L228.02 30.39C227.97 30.5 227.86 30.57 227.74 30.57C227.61 30.57 227.51 30.5 227.46 30.39Z" fill="#333333"/>
<path fill-rule="evenodd" clip-rule="evenodd" d="M93.94 30.68C93.08 31.54 92.05 32.18 90.92 32.57C90.9 32.58 90.87 32.59 90.85 32.59C90.06 32.85 89.22 32.99 88.35 32.99C86.53 32.99 84.8 32.36 83.43 31.27C82.4 30.45 81.57 29.38 81.05 28.11C81.05 28.1 81.04 28.09 81.04 28.08C80.66 27.16 80.45 26.15 80.45 25.09C80.45 24.03 80.66 23.02 81.04 22.1C81.04 22.09 81.05 22.08 81.05 22.07C81.57 20.82 82.39 19.75 83.41 18.93C84.76 17.84 86.48 17.19 88.35 17.19C90.18 17.19 91.92 17.83 93.29 18.93C94.31 19.75 95.13 20.82 95.65 22.07C95.65 22.08 95.66 22.09 95.66 22.1C95.71 22.23 95.76 22.36 95.81 22.49H89.5H83.63H83.62H83.18C82.9 23.3 82.74 24.18 82.74 25.09C82.74 26 82.89 26.87 83.18 27.69H83.62H83.63H86.66H95.81H96.65H100.99C101.12 27.69 101.23 27.59 101.25 27.46L101.34 26.71C101.41 26.17 101.44 25.63 101.44 25.09C101.44 24.55 101.41 24.01 101.34 23.47C100.53 16.92 94.94 12 88.34 12C81.74 12 76.15 16.92 75.34 23.47C75.27 24.01 75.24 24.55 75.24 25.09C75.24 25.63 75.27 26.17 75.34 26.71C76.15 33.26 81.74 38.18 88.34 38.18C91.82 38.18 95.14 36.81 97.6 34.34L98.2 33.74C98.3 33.64 98.3 33.47 98.2 33.37L94.9 30.07C94.8 29.97 94.63 29.97 94.53 30.07L93.94 30.68Z" fill="#333333"/>
<path fill-rule="evenodd" clip-rule="evenodd" d="M27.0314 1.25174L27.0429 1.25583L27.047 1.25992L27.0543 1.26402L34.0841 5.32114L41.118 9.38563L41.1254 9.38973L41.1368 9.39382C44.0399 11.1011 45.4207 13.4853 45.4436 16.8582V16.8697V25.0036V33.1334V33.1407C45.4207 36.5136 44.0399 38.9052 41.1368 40.6092L41.1254 40.6133L41.118 40.6207L34.0841 44.6819L27.0543 48.7349V48.739L27.047 48.7431L27.0429 48.7472L27.0314 48.7513C25.2545 49.7588 23.5431 50.1591 21.8203 49.9471L25.8348 24.5199C26.0075 23.3855 26.2195 22.4508 26.4691 21.7084C26.7155 20.9661 27.092 20.3089 27.6035 19.7433C28.1151 19.1777 28.9499 18.7816 30.1031 18.5508C31.2645 18.3241 33.0332 18.2046 35.4141 18.2046C35.6024 18.2046 35.8217 18.2046 36.0714 18.2046L36.7793 14.0779H7.33017L6.6222 18.2046H15.5942C15.717 18.2046 15.798 18.2046 15.8291 18.2046C16.0141 18.2046 16.1598 18.2619 16.2637 18.3658C16.3595 18.4739 16.4061 18.6466 16.3906 18.8929C16.3947 18.9658 16.3865 19.0738 16.3636 19.2162L12.1755 45.1509L11.3603 44.6819L4.3264 40.6207L4.31495 40.6133L4.30758 40.6092C1.39957 38.9011 0.022917 36.5128 0 33.1399V33.1326V25.0027V16.8689V16.8574C0.022917 13.4886 1.39957 11.0962 4.30676 9.393L4.31413 9.38891L4.32559 9.38482L11.3595 5.32032L18.3852 1.2632H18.3893L18.3934 1.2591L18.4007 1.25501L18.4081 1.25092C21.3431 -0.41711 24.1005 -0.41711 27.0314 1.25174Z" fill="#F9D371"/>
</svg>
